<svg width="1321" height="1004" viewBox="0 0 1321 1004" fill="none" xmlns="http://www.w3.org/2000/svg">
<path d="M376.94 0.279999C370.77 3.67 365.53 9.61 365.52 17C365.493 70.7467 365.49 110.413 365.51 136C365.51 136.333 365.343 136.5 365.01 136.5C363.23 136.5 348.686 136.49 321.38 136.47C316.873 136.47 313.836 136.78 312.27 137.4C309.21 138.607 306.666 140.56 304.64 143.26C304.053 144.047 303.76 143.947 303.76 142.96V0.279999C303.76 0.205738 303.788 0.134526 303.839 0.082016C303.889 0.0295058 303.958 0 304.03 0H376.87C377.25 0 377.273 0.0933321 376.94 0.279999Z" fill="#FFA904"/>
<path d="M521.629 136.5C521.597 136.5 521.567 136.487 521.544 136.465C521.522 136.442 521.509 136.412 521.509 136.38C521.509 95.1667 521.509 55.04 521.509 16C521.509 9.79 515.959 3.68 510.799 0.669998C510.032 0.223332 510.092 0 510.979 0H1018.28C1018.64 0 1018.82 0.179993 1018.82 0.539993L1018.63 165.39C1018.63 165.397 1018.53 165.44 1018.32 165.52L1018.31 165.53C1018.23 165.563 1018.18 165.523 1018.17 165.41C1017.73 162.08 1017.36 158.14 1016.63 154.74C1011.51 130.84 1002.49 109.507 989.559 90.74C948.709 31.42 881.009 2.85 810.299 1.25C800.672 1.03667 791.759 1.03667 783.559 1.25C751.299 2.1 719.179 8.80001 689.879 21.82C641.059 43.51 603.589 84.2 589.899 136.01C589.812 136.337 589.599 136.5 589.259 136.5H521.629Z" fill="#FFA904"/>
<path d="M1017.99 445.9C1017.2 441.947 1016.2 438.397 1015.01 435.25C1003.84 405.67 982.01 378.54 957.6 358.66C951.947 354.053 944.724 348.83 935.93 342.99C919.244 331.91 901.964 321.313 884.09 311.2C863.65 299.633 853.09 293.653 852.41 293.26C846.43 289.793 840.557 286.653 834.79 283.84C813.71 273.57 790.89 261.79 770.41 249.12C756.08 240.26 741.41 228.35 734.52 212.57C728.187 198.057 727.63 182.873 732.85 167.02C737.49 152.953 746.624 142.86 760.25 136.74C776.72 129.34 795.87 128.38 813.81 131.56C840.23 136.24 861.39 151.61 870.74 177.3C875.58 190.59 875.22 204.11 875.17 218.61C875.157 222.47 875.557 225.197 876.37 226.79C879.54 233.01 885.48 237.47 892.82 237.45C937.574 237.323 973.33 237.323 1000.09 237.45C1004.81 237.47 1008.04 237.107 1009.79 236.36C1013.19 234.893 1015.81 232.663 1017.64 229.67C1018.38 228.463 1018.75 228.567 1018.75 229.98C1018.76 287.253 1018.76 358.093 1018.77 442.5C1018.77 443.993 1018.64 445.133 1018.38 445.92C1018.22 446.4 1018.09 446.393 1017.99 445.9Z" fill="#FFA904"/>
<path d="M479.46 684.99H304.3C303.94 684.99 303.76 684.81 303.76 684.45V255.47C303.76 254.89 303.966 254.803 304.38 255.21C308.33 259.19 311.6 262.08 317.66 262.15C336.073 262.337 351.866 262.337 365.04 262.15C365.353 262.143 365.51 262.3 365.51 262.62C365.51 295.473 365.51 392.52 365.51 553.76C365.51 573.08 367.62 592.84 373.53 611.31C382.656 639.85 401.47 659.953 429.97 671.62C446.103 678.22 462.556 682.48 479.33 684.4C479.363 684.4 479.403 684.447 479.45 684.54L479.59 684.78C479.663 684.92 479.62 684.99 479.46 684.99Z" fill="#FFA904"/>
<path d="M585.319 545.76C577.366 545.76 571.106 545.747 566.539 545.72C559.952 545.673 555.149 545.343 552.129 544.73C547.249 543.737 542.696 542.023 538.469 539.59C524.359 531.45 521.509 508.74 521.509 494C521.502 363.553 521.502 286.477 521.509 262.77C521.516 262.423 521.689 262.25 522.029 262.25H595.999C596.359 262.25 596.609 262.417 596.749 262.75C599.882 270.283 603.339 277.05 607.119 283.05C622.659 307.69 641.866 328.797 664.739 346.37C669.099 349.717 674.562 353.527 681.129 357.8C710.189 376.71 740.639 392.99 771.889 408.7C788.936 417.273 806.886 426.933 825.739 437.68C838.909 445.18 851.819 453.68 862.199 464.72C873.269 476.5 878.759 490.92 877.689 507C876.069 531.35 861.229 551.54 837.559 558.36C816.626 564.387 795.562 563.813 774.369 556.64C749.749 548.3 731.939 528.81 727.449 503.1C726.009 494.82 726.429 485.38 726.469 474.88C726.482 471.34 726.212 468.893 725.659 467.54C723.749 462.8 719.629 458.71 715.209 456.7C714.016 456.16 711.686 455.89 708.219 455.89C668.012 455.963 631.129 455.937 597.569 455.81C593.442 455.797 589.876 457.227 586.869 460.1C582.269 464.49 580.809 466.96 580.789 473.41C580.762 483.583 580.756 492.68 580.769 500.7C580.799 516.86 582.209 531.08 585.519 545.51C585.559 545.677 585.492 545.76 585.319 545.76Z" fill="#FFA904"/>
<path d="M871.88 684.08C873.84 684.013 875.42 683.84 876.62 683.56C914.094 674.9 946.147 657.517 972.78 631.41C993.93 610.67 1009.01 585.71 1017.1 556.97C1017.47 555.637 1017.83 554.07 1018.17 552.27C1018.56 550.197 1018.75 550.213 1018.75 552.32V684.41C1018.75 684.803 1018.55 685 1018.16 685C961.014 685 914.21 685 877.75 685C875.79 685 873.15 684.62 871.84 684.35C871.087 684.203 871.1 684.113 871.88 684.08Z" fill="#FFA904"/>
<path d="M737.559 684.44C736.089 684.57 734.549 684.99 733.169 684.99C680.775 685.017 636.402 685.01 600.049 684.97C599.549 684.97 599.495 684.813 599.889 684.5C605.369 680.11 607.989 676.31 607.989 669C608.002 654.747 608.009 631.77 608.009 600.07C608.009 599.61 608.132 599.573 608.379 599.96C636.039 643.44 681.959 671.41 731.709 683.39C733.279 683.77 736.749 683.74 737.719 684.1C738.199 684.273 738.145 684.387 737.559 684.44Z" fill="#FFA904"/>
<path d="M470.32 798.71C479.56 787.34 492.64 783.92 506.85 784.89C536.39 786.91 550.24 809.74 550.25 837.13C550.256 847.61 550.26 881.113 550.26 937.64C550.26 939.567 549.996 940.927 549.47 941.72C548.61 943.027 547.203 943.687 545.25 943.7C535.943 943.76 524.376 943.767 510.55 943.72C509.278 943.715 508.059 943.207 507.161 942.307C506.264 941.407 505.76 940.19 505.76 938.92C505.76 877.72 505.756 845.747 505.75 843C505.73 833.98 500.62 824.98 491.04 823.54C481.79 822.16 473.99 826.8 470.96 835.68C470.193 837.907 469.806 841.55 469.8 846.61C469.746 877.317 469.736 908.03 469.77 938.75C469.78 943.13 466.17 943.73 462.41 943.74C451.823 943.753 441.276 943.753 430.77 943.74C425.33 943.73 425.01 940.59 425.01 935.9C425.01 869.887 425.01 803.87 425.01 737.85C425.01 733.86 426.2 731.2 430.51 731.2C431.576 731.2 442.383 731.223 462.93 731.27C466.78 731.28 469.75 732.19 469.75 736.5C469.756 773.213 469.77 793.887 469.79 798.52C469.79 799.08 469.966 799.143 470.32 798.71Z" fill="#FFA904"/>
<path d="M62.21 821.24C62.0933 821.24 61.9814 821.287 61.8989 821.372C61.8163 821.456 61.77 821.571 61.77 821.69C61.7567 833.577 61.7533 856.93 61.76 891.75C61.76 893.857 62.3367 896.33 63.49 899.17C66.36 906.24 76.08 905.04 82.04 905.04C83.2291 905.043 84.3686 905.517 85.2084 906.359C86.0483 907.2 86.52 908.341 86.52 909.53C86.52 919.203 86.51 928.88 86.49 938.56C86.48 941.32 85.73 943.31 82.81 943.52C73.53 944.193 64.4533 944.17 55.58 943.45C50.7867 943.063 46.09 942.19 41.49 940.83C24.43 935.8 19.02 923.62 19.01 907.07C19.01 878.943 19.01 850.587 19.01 822C19.01 821.798 18.9299 821.605 18.7874 821.463C18.6449 821.32 18.4516 821.24 18.25 821.24H4.50999C3.3209 821.24 2.18036 820.768 1.33861 819.928C0.496856 819.089 0.0226373 817.949 0.019989 816.76C0.0133223 813.267 0.00666667 805.55 0 793.61C0 791.63 0.199991 790.257 0.599991 789.49C1.41332 787.963 2.79667 787.21 4.75 787.23C9.44333 787.27 13.9667 787.27 18.32 787.23C18.5039 787.227 18.6794 787.152 18.8085 787.021C18.9376 786.89 19.01 786.714 19.01 786.53V752C19.01 750.807 19.4831 749.662 20.3251 748.818C21.1671 747.974 22.3092 747.5 23.5 747.5H56.89C58.1816 747.5 59.4203 748.014 60.3336 748.929C61.2469 749.844 61.76 751.086 61.76 752.38V786.75C61.76 786.883 61.8127 787.01 61.9064 787.104C62.0002 787.197 62.1274 787.25 62.26 787.25H85.51C86.6372 787.25 87.7182 787.698 88.5152 788.495C89.3122 789.292 89.76 790.373 89.76 791.5V817C89.76 818.125 89.3122 819.203 88.5152 819.998C87.7182 820.793 86.6372 821.24 85.51 821.24H62.21Z" fill="#FFA904"/>
<path d="M158.509 880.26C158.399 880.259 158.29 880.282 158.19 880.327C158.089 880.371 157.999 880.436 157.924 880.518C157.85 880.6 157.793 880.697 157.758 880.802C157.723 880.907 157.709 881.019 157.719 881.13C158.059 885.083 158.446 888.267 158.879 890.68C160.639 900.53 167.689 906.91 177.529 907.67C185.699 908.3 193.489 905.09 197.479 897.74C199.219 894.55 200.239 891.15 204.259 891.87C211.892 893.243 222.496 895.327 236.069 898.12C237.589 898.433 238.639 898.92 239.219 899.58C240.272 900.793 240.586 902.047 240.159 903.34C232.046 927.76 215.549 941.76 190.669 945.34C180.756 946.76 170.252 946.273 159.159 943.88C129.929 937.57 116.339 914.85 113.819 886.53C112.612 872.87 112.429 859.613 113.269 846.76C113.649 840.86 114.482 835.173 115.769 829.7C121.159 806.67 138.829 790.47 161.899 786.14C170.879 784.46 180.092 784.28 189.539 785.6C217.429 789.49 238.229 809.69 241.239 838.06C242.792 852.74 243.042 865.757 241.989 877.11C241.796 879.197 240.469 880.24 238.009 880.24C204.809 880.24 178.309 880.247 158.509 880.26ZM158.109 851.97L196.949 852.03C196.98 852.031 197.011 852.026 197.04 852.015C197.069 852.004 197.096 851.988 197.118 851.966C197.141 851.945 197.159 851.919 197.171 851.89C197.183 851.862 197.189 851.831 197.189 851.8L197.199 845.33C197.209 839.491 195.237 833.887 191.717 829.752C188.197 825.617 183.417 823.289 178.429 823.28H176.749C174.279 823.275 171.831 823.841 169.547 824.943C167.262 826.046 165.186 827.665 163.435 829.707C161.685 831.749 160.295 834.174 159.345 836.844C158.395 839.515 157.904 842.378 157.899 845.27L157.889 851.74C157.889 851.799 157.912 851.856 157.953 851.899C157.994 851.942 158.05 851.967 158.109 851.97Z" fill="#FFA904"/>
<path d="M360.35 884C373.14 884.98 380.74 885.62 392.15 886.76C394.48 887 397.07 888.31 397.02 890.78C396.84 899.393 395.08 907.287 391.74 914.46C379.4 940.95 348.74 948.58 322.1 945.33C297.5 942.33 278.01 927.22 271.77 902.87C270.25 896.91 269.24 890.147 268.74 882.58C267.826 868.64 268.083 854.797 269.51 841.05C270.35 832.923 271.723 826.417 273.63 821.53C281.77 800.67 300.23 788.25 322.29 785.45C345.47 782.5 371.03 788.33 386.01 807.68C392.87 816.54 396.616 827.08 397.25 839.3C397.403 842.253 395.936 843.903 392.85 844.25C389.15 844.67 377.61 845.807 358.23 847.66C356.343 847.84 354.943 847.263 354.03 845.93C353.596 845.303 353.25 843.993 352.99 842C351.63 831.74 345.35 823.86 334.52 823.38C324.84 822.94 317.9 828.08 315.35 837.15C313.3 844.44 312.96 853.38 312.77 861.68C312.536 871.587 313.12 880.753 314.52 889.18C315.88 897.38 320.14 905.31 328.75 906.97C338.76 908.89 348.22 904.91 351.42 895.17C352.21 892.74 352.24 887.28 354.11 885.13C355.85 883.13 357.97 883.81 360.35 884Z" fill="#FFA904"/>
<path d="M812.02 806.23L813.6 793.37C813.732 792.305 814.25 791.326 815.056 790.615C815.863 789.904 816.903 789.511 817.98 789.51H833.15C833.642 789.511 834.129 789.616 834.577 789.818C835.026 790.021 835.426 790.316 835.752 790.684C836.078 791.053 836.322 791.486 836.469 791.956C836.615 792.426 836.66 792.922 836.6 793.41L818.51 940.02C818.388 941.01 817.913 941.922 817.173 942.591C816.433 943.259 815.477 943.639 814.48 943.66C809.147 943.78 804.164 943.797 799.53 943.71C796.65 943.657 795.417 942.14 795.83 939.16C796.284 935.827 796.687 932.113 797.04 928.02C797.08 927.527 796.947 927.473 796.64 927.86C791.247 934.6 784.984 939.483 777.85 942.51C767.37 946.96 754.35 947.21 743.8 943.47C724.6 936.66 717.55 917.2 718.57 898.26C719.197 886.673 720.69 871.767 723.05 853.54C725.03 838.25 727.77 821.55 736.83 809.12C748.297 793.407 763.804 786.153 783.35 787.36C796.004 788.14 805.467 794.447 811.74 806.28C811.887 806.56 811.98 806.543 812.02 806.23ZM745.18 863.44C744.267 871.187 743.557 877.457 743.05 882.25C742.204 890.23 741.917 896.47 742.19 900.97C742.91 912.97 750.13 922.75 762.05 924.72C779.06 927.54 794.24 916.68 798.91 900.68C801.72 891.06 803.03 880.2 804.25 869.79C805.157 862.043 805.864 855.773 806.37 850.98C807.217 843 807.504 836.76 807.23 832.26C806.51 820.26 799.29 810.48 787.37 808.51C770.36 805.69 755.18 816.55 750.51 832.55C747.7 842.17 746.39 853.03 745.18 863.44Z" fill="#707070"/>
<path d="M669.109 827.52C669.116 822.433 667.343 818.163 663.789 814.71C650.619 801.89 618.529 806.77 614.319 826.83C612.499 835.47 614.529 842.2 622.219 846.72C627.999 850.1 633.693 852.793 639.299 854.8C645.906 857.167 652.493 859.77 659.059 862.61C665.413 865.37 670.939 869.347 675.639 874.54C682.079 881.65 684.269 890.97 683.419 900.33C681.926 916.77 674.016 929.14 659.689 937.44C647.229 944.65 631.319 946.32 616.809 944.43C596.259 941.75 579.419 928.03 581.549 905.63C581.999 900.91 581.889 897.37 587.519 897.44C591.193 897.487 594.869 897.503 598.549 897.49C602.029 897.48 605.159 898.04 604.379 902.27C603.239 908.54 604.479 913.69 608.919 918.44C612.439 922.22 616.726 924.58 621.779 925.52C636.179 928.19 652.339 923.75 658.309 909.83C662.089 901.01 660.949 891.06 651.969 886.04C646.283 882.86 640.969 880.353 636.029 878.52C624.279 874.15 613.299 869.82 603.739 862.78C597.209 857.96 593.429 851.73 592.169 843.89C591.089 837.143 591.396 830.36 593.089 823.54C600.579 793.42 634.089 783.73 661.089 789.69C673.819 792.5 685.329 801.08 689.049 813.68C690.856 819.8 691.293 825.803 690.359 831.69C689.799 835.19 687.269 835.7 684.009 835.74C680.279 835.78 676.499 835.61 672.789 835.76C667.469 835.98 669.099 830.55 669.109 827.52Z" fill="#707070"/>
<path d="M911.951 907.73C924.651 874.857 939.281 836.813 955.841 793.6C957.361 789.62 959.461 789.35 963.511 789.56C967.718 789.787 971.968 789.83 976.261 789.69C978.781 789.61 982.161 790.69 980.791 794.02C959.824 845.253 939.878 893.967 920.951 940.16C919.991 942.507 918.181 943.693 915.521 943.72C910.274 943.767 904.881 943.77 899.341 943.73C898.33 943.722 897.354 943.356 896.586 942.698C895.818 942.039 895.306 941.13 895.141 940.13L871.231 794.53C870.684 791.177 872.108 789.5 875.501 789.5H892.021C892.8 789.5 893.553 789.781 894.141 790.292C894.729 790.802 895.112 791.509 895.221 792.28L911.491 907.68C911.578 908.287 911.731 908.303 911.951 907.73Z" fill="#707070"/>
<path d="M1046.34 907.73C1059.03 874.863 1073.66 836.827 1090.22 793.62C1091.74 789.64 1093.84 789.37 1097.88 789.58C1102.09 789.807 1106.34 789.85 1110.63 789.71C1113.15 789.63 1116.53 790.71 1115.16 794.04C1094.2 845.267 1074.26 893.973 1055.34 940.16C1054.38 942.507 1052.57 943.693 1049.91 943.72C1044.66 943.767 1039.27 943.77 1033.73 943.73C1032.72 943.72 1031.75 943.353 1030.98 942.694C1030.21 942.036 1029.7 941.128 1029.54 940.13L1005.62 794.56C1005.07 791.207 1006.5 789.53 1009.89 789.53H1026.41C1027.19 789.53 1027.94 789.811 1028.53 790.322C1029.12 790.833 1029.5 791.539 1029.61 792.31L1045.88 907.68C1045.97 908.287 1046.12 908.303 1046.34 907.73Z" fill="#707070"/>
<path d="M1178.73 910.13C1188.76 884.51 1204 845.303 1224.46 792.51C1225.2 790.597 1226.82 789.613 1229.31 789.56C1234.61 789.447 1239.76 789.443 1244.75 789.55C1247.61 789.61 1248.76 792.24 1247.66 794.85C1234.33 826.603 1211.57 881.103 1179.4 958.35C1175.61 967.463 1171.14 976.17 1165.99 984.47C1161.92 991.037 1156.67 995.917 1150.24 999.11C1142.49 1002.96 1131.89 1003.65 1122.29 1003.66C1119.34 1003.67 1118.65 1001.51 1118.97 998.94C1119.6 993.98 1120.12 990.007 1120.54 987.02C1120.99 983.78 1123.36 983.41 1126.39 983.27C1135.96 982.83 1143.44 980.53 1149.15 972.39C1155.06 963.97 1158.92 953.66 1162.46 944C1162.9 942.787 1162.99 941.423 1162.74 939.91C1154.2 889.897 1145.92 841.4 1137.89 794.42C1137.36 791.293 1138.73 789.7 1142 789.64C1149.13 789.513 1153.78 789.457 1155.95 789.47C1159.73 789.5 1161.48 790.33 1162 794.37C1164.54 814.05 1169.97 852.62 1178.28 910.08C1178.36 910.673 1178.51 910.69 1178.73 910.13Z" fill="#707070"/>
<path d="M1244.48 872H1239.04C1238.33 872 1237.76 872.573 1237.76 873.28V941.72C1237.76 942.427 1238.33 943 1239.04 943H1244.48C1245.19 943 1245.76 942.427 1245.76 941.72V873.28C1245.76 872.573 1245.19 872 1244.48 872Z" fill="#FFA904"/>
<path d="M1267.74 872.01H1262.28C1261.58 872.01 1261.01 872.579 1261.01 873.28V941.72C1261.01 942.421 1261.58 942.99 1262.28 942.99H1267.74C1268.44 942.99 1269.01 942.421 1269.01 941.72V873.28C1269.01 872.579 1268.44 872.01 1267.74 872.01Z" fill="#FFA904"/>
<path d="M1291.51 917.2C1291.49 924.81 1290.89 932.87 1297.78 935.8C1304.49 938.65 1311.62 934.76 1312.48 927.2C1312.5 927.04 1312.55 926.886 1312.63 926.746C1312.7 926.606 1312.81 926.482 1312.93 926.383C1313.06 926.283 1313.2 926.21 1313.36 926.166C1313.51 926.123 1313.67 926.111 1313.83 926.13L1319.38 926.82C1320.06 926.9 1320.37 927.283 1320.32 927.97C1319.4 940.83 1307.24 946.13 1295.88 942.89C1289.49 941.07 1285.59 936.74 1284.16 929.9C1283.71 927.74 1283.49 923.5 1283.51 917.18C1283.53 910.854 1283.77 906.61 1284.23 904.45C1285.7 897.623 1289.64 893.32 1296.04 891.54C1307.41 888.37 1319.54 893.74 1320.38 906.61C1320.43 907.297 1320.12 907.677 1319.44 907.75L1313.88 908.41C1313.72 908.428 1313.56 908.414 1313.41 908.37C1313.25 908.325 1313.11 908.25 1312.99 908.15C1312.86 908.05 1312.76 907.926 1312.68 907.785C1312.61 907.644 1312.56 907.49 1312.54 907.33C1311.73 899.77 1304.62 895.83 1297.89 898.64C1290.98 901.52 1291.53 909.59 1291.51 917.2Z" fill="#FFA904"/>
</svg>
